<?xml version="1.0" encoding="utf-8"?>
<!-- Generator: Adobe Illustrator 25.0.0, SVG Export Plug-In . SVG Version: 6.00 Build 0)  -->
<svg version="1.1" id="Layer_1" xmlns="http://www.w3.org/2000/svg" xmlns:xlink="http://www.w3.org/1999/xlink" x="0px" y="0px"
	 viewBox="0 0 6395 1079" style="enable-background:new 0 0 6395 1079;" xml:space="preserve">
<style type="text/css">
	.st0{clip-path:url(#SVGID_2_);fill:#F1F5F8;}
	.st1{clip-path:url(#SVGID_2_);fill:#009147;}
</style>
<g>
	<defs>
		<rect id="SVGID_1_" y="0" width="6395" height="1079"/>
	</defs>
	<clipPath id="SVGID_2_">
		<use xlink:href="#SVGID_1_"  style="overflow:visible;"/>
	</clipPath>
	<path class="st0" d="M6396.2,853c-3-71-39.6-170.6-84.5-277C6144.5,180.5,6367-7.3,6367-7.3l-435.8-8.5v-7H-254.5v1144.3h6185.7
		v-12.7l308.9,12.7C6240.1,1121.5,6404.4,1045.7,6396.2,853z"/>
	<path id="Union_6" class="st1" d="M5600.1,1081.5v-1.6H0.3V-0.3h5599.8v0h759.7c0,0-187.8,197.4-91.6,488.8
		c49.2,148.9,96.3,256.3,104.7,362.1c8,100.9-58,201.7-168.6,254.3c-65.9,31.3-144.6,42.4-223,42.4
		C5790,1147.3,5600.1,1081.5,5600.1,1081.5z"/>
</g>
</svg>
