<?xml version="1.0" encoding="utf-8"?>
<!-- Generator: Adobe Illustrator 25.0.0, SVG Export Plug-In . SVG Version: 6.00 Build 0)  -->
<svg version="1.1" id="Layer_1" xmlns="http://www.w3.org/2000/svg" xmlns:xlink="http://www.w3.org/1999/xlink" x="0px" y="0px"
	 viewBox="0 0 312 311.9" style="enable-background:new 0 0 312 311.9;" xml:space="preserve">
<style type="text/css">
	.st0{fill:#989898;}
	.st1{fill:url(#SVGID_1_);}
	.st2{fill:url(#SVGID_2_);}
	.st3{fill:url(#SVGID_3_);}
	.st4{fill:#3B215C;}
</style>
<g>
	<g>
		<path class="st0" d="M285.2,165.7c0,75.4-61.3,136.7-136.7,136.7c-25.5,0-50.4-7.1-72-20.5l-0.4-2l6.1-6.5
			c19.9,12.3,42.8,18.8,66.2,18.8c69.7,0,126.5-56.7,126.5-126.5c0-1.8,0-3.7-0.1-5.5c0,0,0.1-0.1,0.3-0.3c1.4-1.3,6.8-8.9,8.7-12.1
			c0.3,1.4,0.1,0.4,0.4,2c0.2,1.5,0.3,3,0.4,4.5C285,158.1,285.2,161.9,285.2,165.7z"/>
	</g>
	<g>
		<path class="st0" d="M33.3,105.4c-9,17.9-13.6,37.7-13.6,57.5c-0.1,19.8,4.5,39.4,13.2,57c8.1,16.6,20.3,29.8,34.6,41.3
			c0.3,1.8,0.1,0.3,0.4,2l-4.5,9.5c-16.1-13.4-29.1-30.4-37.6-49.4c-8.5-19-12.4-39.9-11.5-60.5c0.8-20.6,6.4-40.9,16.3-58.8
			c9.2-16.8,22-31.4,37.2-42.7c1.1-0.8,2.1-1.5,3.2-2.3l0.4,0.6c-1.1,0.8-2.1,1.6-3.2,2.5C53.7,73.8,41.7,88.7,33.3,105.4z"/>
		<g>
			<polygon class="st0" points="58,54.6 68.2,61.5 70.3,73.7 86.7,49.6 86.4,47.6 57.6,52.6 			"/>
		</g>
	</g>
	<g>
		<linearGradient id="SVGID_1_" gradientUnits="userSpaceOnUse" x1="311.5587" y1="172.253" x2="85.6989" y2="317.722">
			<stop  offset="0" style="stop-color:#FCB627"/>
			<stop  offset="0.6536" style="stop-color:#FFCC04"/>
			<stop  offset="1" style="stop-color:#FCB627"/>
		</linearGradient>
		<path class="st1" d="M284.8,163.7c0,75.4-61.3,136.7-136.7,136.7c-25.5,0-50.4-7.1-72-20.5l5.8-8.5c19.9,12.3,42.8,18.8,66.2,18.8
			c69.7,0,126.5-56.7,126.5-126.5c0-1.8,0-3.7-0.1-5.5c0,0,0.1-0.1,0.3-0.3c1.4-1.4,7.3-6.9,9.1-10.1c0.2,1.5,0.3,3,0.4,4.5
			C284.6,156.1,284.8,160,284.8,163.7z"/>
	</g>
	<linearGradient id="SVGID_2_" gradientUnits="userSpaceOnUse" x1="41.6341" y1="274.7347" x2="53.7565" y2="32.2863">
		<stop  offset="0" style="stop-color:#FCB627"/>
		<stop  offset="1" style="stop-color:#FFCC04"/>
	</linearGradient>
	<path class="st2" d="M86.4,47.6l-28.8,5.1l9.8,6.7c-15.2,11.3-28,25.9-37.2,42.7c-9.8,17.9-15.5,38.2-16.3,58.8
		c-0.9,20.6,3.1,41.5,11.5,60.5c8.5,19,21.4,36.1,37.6,49.4l4.5-9.5c-14.6-11.6-26.6-26.5-34.9-43.3c-8.7-17.5-13.3-37.2-13.2-57
		c0-19.8,4.6-39.6,13.6-57.5c8.3-16.7,20.3-31.6,34.9-43.4c0,0,0,0,0,0l2,11.6L86.4,47.6z"/>
	<g>
		<g>
			<polygon class="st0" points="115.6,132.4 171.5,131.1 172.4,132.4 52.7,307.9 51.8,306.6 117.7,170.4 51.5,170.4 50.6,169.1 
				107.6,5.4 189.1,4.1 190.1,5.4 			"/>
			<path class="st0" d="M292.4,72.1c-3.8-8-9.4-14.8-16.8-20.6c-7.4-5.7-16.4-10.2-27.2-13.3c-10.8-3.1-23.2-4.7-37.3-4.7h-29.8
				l-31.8,51.3l1,1.3h57.1c8.9,0,15.6,1.8,20.1,5.3c4.5,3.5,6.8,8.2,6.8,14.1c0,7.9-3.1,14.3-9.4,19.4c-6.3,5-14.8,7.6-25.7,7.6
				h-18.8l-36.3,50.5l1,1.3l39-0.1c17.5,0,33.4-2.1,47.5-6.4c14.1-4.2,26-10.1,35.8-17.7c9.8-7.6,17.3-16.6,22.7-27.1
				c5.3-10.5,8-22,8-34.5C298.1,88.9,296.2,80.1,292.4,72.1z"/>
		</g>
		<linearGradient id="SVGID_3_" gradientUnits="userSpaceOnUse" x1="145.1413" y1="-19.6104" x2="80.5179" y2="301.8495">
			<stop  offset="0" style="stop-color:#FFCE05"/>
			<stop  offset="0.5419" style="stop-color:#FCB627"/>
			<stop  offset="1" style="stop-color:#FFCC04"/>
		</linearGradient>
		<polygon class="st3" points="114.6,131.1 171.5,131.1 51.8,306.6 116.7,169.1 50.6,169.1 106.7,4 189.1,4.1 		"/>
		<path class="st4" d="M291.5,70.7c-3.8-8-9.4-14.8-16.8-20.6c-7.4-5.7-16.4-10.2-27.2-13.3c-10.8-3.1-23.2-4.7-37.3-4.7h-29.8
			l-30.8,52.6h57.1c8.9,0,15.6,1.8,20.1,5.3c4.5,3.5,6.8,8.2,6.8,14.1c0,7.9-3.1,14.3-9.4,19.4c-6.3,5-14.8,7.6-25.7,7.6h-18.8
			l-35.3,51.8l39-0.1c17.5,0,33.4-2.1,47.5-6.4c14.1-4.2,26-10.1,35.8-17.7c9.8-7.6,17.3-16.6,22.7-27.1c5.3-10.5,8-22,8-34.5
			C297.2,87.5,295.3,78.7,291.5,70.7z"/>
	</g>
</g>
</svg>
