<?xml version="1.0" encoding="UTF-8"?>
<svg id="Layer_1" data-name="Layer 1" xmlns="http://www.w3.org/2000/svg" version="1.1" viewBox="0 0 30 30">
  <defs>
    <style>
      .cls-1 {
        fill: #c3171a;
      }

      .cls-1, .cls-2 {
        fill-rule: evenodd;
        stroke-width: 0px;
      }

      .cls-2 {
        fill: #fff;
      }
    </style>
  </defs>
  <path id="path4" class="cls-1" d="M4.1,30h21.8c2.3,0,4.1-1.8,4.1-4.1V4.1c0-2.3-1.8-4.1-4.1-4.1H4.1C1.8,0,0,1.8,0,4.1v21.8C0,28.2,1.8,30,4.1,30Z"/>
  <path id="path6" class="cls-2" d="M26.9,14.1c-6-.5-10.5-4.9-11-11,5.8.5,10.5,5.1,11,11ZM26.9,15.9c-.5,5.9-5.1,10.5-11,11,.5-6,4.9-10.4,11-11ZM3.1,15.9c6,.5,10.5,4.9,11,11-5.8-.5-10.5-5.1-11-11ZM3.1,14.1c.5-5.9,5.1-10.5,11-11-.5,6-4.9,10.4-11,11ZM7,15c1.9-.7,3.5-1.7,4.9-3.1,1.4-1.4,2.4-3,3.1-4.9.7,1.9,1.7,3.5,3.1,4.9,1.4,1.4,3,2.4,4.9,3.1-1.9.7-3.5,1.8-4.9,3.1-1.4,1.4-2.4,3-3.1,4.9-.7-1.9-1.7-3.5-3.1-4.9-1.4-1.4-3-2.4-4.9-3.1ZM15,1.3h0s0,0,0,0C7.4,1.3,1.3,7.4,1.3,15s6.1,13.7,13.7,13.7c7.6,0,13.7-6.1,13.7-13.7,0-7.6-6.1-13.7-13.7-13.7h0Z"/>
</svg>